<?xml version="1.0" standalone="no"?>
<!DOCTYPE svg PUBLIC "-//W3C//DTD SVG 20010904//EN"
 "http://www.w3.org/TR/2001/REC-SVG-20010904/DTD/svg10.dtd">
<svg version="1.0" xmlns="http://www.w3.org/2000/svg"
 width="1536.000000pt" height="1536.000000pt" viewBox="0 0 1536.000000 1536.000000"
 preserveAspectRatio="xMidYMid meet">
<metadata>
Created by potrace 1.14, written by Peter Selinger 2001-2017
</metadata>
<g transform="translate(0.000000,1536.000000) scale(0.100000,-0.100000)"
fill="#000000" stroke="none">
<path d="M1880 8879 l-485 -253 -138 73 -138 72 -439 -228 c-242 -125 -436
-231 -432 -234 4 -4 179 -96 390 -205 l382 -198 0 -445 c0 -425 1 -447 20
-478 10 -18 36 -43 57 -56 21 -13 314 -166 651 -341 598 -310 615 -318 660
-313 36 4 144 56 450 215 l402 210 102 -53 102 -54 91 48 c49 27 158 83 240
126 83 43 200 103 260 135 61 32 148 77 193 100 l84 43 -54 29 c-29 16 -141
75 -248 130 -107 55 -210 109 -227 120 l-33 20 0 521 c0 500 -1 523 -20 554
-10 18 -29 38 -42 46 -13 8 -302 160 -643 337 -425 221 -633 324 -660 327 -36
4 -83 -18 -525 -248z m1075 -342 l540 -282 3 -383 c2 -288 -1 -382 -10 -382
-6 0 -53 22 -103 49 -92 49 -92 49 -121 32 -33 -20 -135 -74 -546 -286 -159
-82 -285 -152 -280 -156 4 -4 70 -39 147 -79 293 -151 355 -184 355 -191 0 -4
-122 -71 -272 -148 l-272 -141 -540 281 c-297 154 -546 285 -553 291 -11 8
-13 123 -11 561 l3 551 540 282 c297 155 549 282 560 282 11 0 263 -126 560
-281z"/>
<path d="M5798 8157 c-26 -8 -62 -26 -82 -40 -44 -34 -102 -104 -115 -140 -18
-46 -15 -619 3 -661 20 -48 126 -151 172 -167 27 -10 91 -14 209 -14 197 0
212 5 302 97 83 85 83 84 82 420 0 201 -4 303 -12 326 -15 42 -121 150 -167
170 -48 22 -325 27 -392 9z m335 -215 l27 -28 0 -266 0 -266 -31 -26 c-29 -25
-36 -26 -154 -26 l-123 0 -31 35 -31 36 0 249 0 249 31 36 31 35 127 0 c126 0
127 0 154 -28z"/>
<path d="M7180 7650 l0 -510 100 0 100 0 0 195 0 195 158 0 c86 0 175 5 197
11 58 16 159 119 175 179 17 62 9 245 -12 285 -26 49 -110 123 -157 140 -35
12 -95 15 -302 15 l-259 0 0 -510z m512 293 c15 -13 18 -31 18 -96 0 -118 1
-117 -182 -117 l-148 0 0 115 0 115 147 0 c122 0 149 -3 165 -17z"/>
<path d="M8680 7650 l0 -510 330 0 330 0 0 100 0 100 -225 0 -225 0 0 105 0
105 218 2 217 3 3 98 3 97 -221 0 -220 0 0 105 0 105 225 0 225 0 0 100 0 100
-330 0 -330 0 0 -510z"/>
<path d="M10160 7650 l0 -510 100 0 100 0 2 297 3 297 161 -294 161 -295 104
0 104 0 0 505 0 505 -102 3 -103 3 -2 -299 -3 -299 -160 298 -159 299 -103 0
-103 0 0 -510z"/>
<path d="M11975 8148 c-24 -67 -345 -1002 -345 -1005 0 -2 49 -3 109 -3 l108
0 35 98 35 97 175 3 175 2 35 -97 34 -98 107 -3 c59 -1 107 1 107 5 0 4 -77
234 -171 511 l-172 502 -114 0 c-82 0 -115 -3 -118 -12z m174 -448 c28 -80 51
-148 51 -152 0 -5 -49 -8 -110 -8 l-109 0 46 133 c59 171 63 181 68 176 2 -3
27 -70 54 -149z"/>
<path d="M13300 7650 l0 -511 103 3 102 3 3 508 2 507 -105 0 -105 0 0 -510z"/>
<path d="M14330 7650 l0 -510 100 0 100 0 0 195 0 195 83 0 82 0 100 -192 100
-193 113 -3 c61 -1 112 0 112 4 0 4 -48 95 -106 202 l-107 195 29 20 c53 38
110 106 122 145 19 64 15 239 -7 287 -25 54 -118 140 -167 154 -23 7 -142 11
-296 11 l-258 0 0 -510z m512 293 c15 -13 18 -31 18 -96 0 -118 1 -117 -182
-117 l-148 0 0 115 0 115 147 0 c122 0 149 -3 165 -17z"/>
</g>
</svg>
